<svg xmlns="http://www.w3.org/2000/svg" width="51" height="50" fill="none"><g fill-rule="evenodd"><path d="M48.063 15.86h-13.36V2.12c0-1.17-.92-2.12-2.06-2.12h-13c-1.13 0-2.06.95-2.06 2.12v10.49c0 1.98 1.04 3.79 2.69 4.78 5.45 3.29 9.98 8.02 13.1 13.68.82 1.49 2.36 2.41 4.02 2.41h10.67c1.13 0 2.05-.95 2.05-2.11V17.98c0-1.17-.92-2.12-2.05-2.12z" fill="#14bfff"/><path d="M17.58 46.467c0 1.54 1.25 2.79 2.8 2.79h11.94a2.8 2.8 0 002.8-2.79v-6.78c0-4.59-4.83-10.93-7.17-13.58-5.78-6.55-11.55-10.16-22.91-10.16H.68c3.81 7.19 13.49 11.15 19.76 11.38-7.06.09-16.5-3.57-20.44-10.83.25 10.19 7.28 16.25 17.58 16.98 6.16.44 12.15.26 14.25 3.37 1.06 1.57.96 2.98.96 4.91v4.71c0 .26-.21.47-.47.47H20.38a.47.47 0 01-.47-.47v-7.82c0-2.99-2.33-3.24-2.33-3.24v11.06z" fill="#00baad"/></g></svg>